<?xml version="1.0" encoding="utf-8"?>
<svg version="1.1" id="Layer_1" xmlns="http://www.w3.org/2000/svg" xmlns:xlink="http://www.w3.org/1999/xlink" x="0px" y="0px"
	 viewBox="0 0 1719.1 479.4" style="enable-background:new 0 0 1719.1 479.4;" xml:space="preserve">
<style type="text/css">
	.st0{fill:#FFFFFF;}
</style>
<g>
	<path class="st0" d="M158.1,317.2C70.8,317.1,0,246.1,0,158.7C0,71.1,71.2,0.3,158.9,0.5c87.3,0.2,158,71.3,157.9,158.8
		C316.7,246.5,245.6,317.3,158.1,317.2z"/>
	<path class="st0" d="M1719.1,159.1c-0.1,87.3-71.1,158.1-158.6,158.1c-87.6,0-158.4-71.2-158.3-158.9
		c0.2-87.3,71.3-158,158.8-157.8C1648.4,0.6,1719.2,71.6,1719.1,159.1z"/>
	<path class="st0" d="M454.5,239.7c0,66.6,0,133.2,0,199.8c0,23.1-14.8,38.4-38.1,39.6c-11.9,0.6-23.1-1.5-33.1-8.4
		c-9.6-6.7-14.2-15.8-14.2-27.6c0.1-30.1,0-60.3,0-90.4c0-104.2,0-208.4,0-312.6c0-23.1,14.5-38.2,37.7-39.6
		c12.7-0.7,24.5,1.5,34.9,9.3c8.5,6.4,12.9,14.9,12.9,25.6C454.5,103.5,454.5,171.6,454.5,239.7
		C454.5,239.7,454.5,239.7,454.5,239.7z"/>
	<path class="st0" d="M606.5,239.7c0,68.3,0,136.5,0,204.8c0,10.4-4.4,18.6-12.4,24.9c-16.2,12.7-43.1,12.9-59.7,0.6
		c-8.7-6.5-13.3-15-13.3-26c0-136,0.1-272,0-408c0-12.5,5.4-21.7,15.7-28.2c17.1-11,42.8-9.6,58.1,2.9c7.8,6.4,11.7,14.7,11.7,24.8
		C606.5,103.5,606.5,171.6,606.5,239.7z"/>
	<path class="st0" d="M1051.8,240.2c0,66.6,0,133.2,0,199.8c0,22.9-14.9,38.1-38.1,39c-13,0.5-25.1-2-35.5-10.4
		c-7.4-6-11.4-13.7-11.6-23.3c0-2.2,0-4.3,0-6.5c0-133,0.3-266-0.2-399C966.2,16.4,981,5.2,997.6,1.6c15.3-3.3,29.9-1,42.5,8.9
		c6.4,5,10.9,11.5,11.4,20c0.2,3.2,0.2,6.3,0.2,9.5C1051.8,106.7,1051.8,173.5,1051.8,240.2z"/>
	<path class="st0" d="M825.5,239.6c0-66.9,0-133.8,0-200.8c0-19.6,8.8-31.2,27.9-36.4c14.6-4,28.7-2.6,41.7,5.5
		c10.1,6.3,15.5,15.3,15.5,27.7c-0.1,135.8-0.1,271.7,0,407.5c0,12.8-5.4,22-15.7,28.6c-17.2,11.1-42.6,9.6-58.4-3.5
		c-7.1-5.9-11-13.4-11-23C825.6,376.7,825.5,308.1,825.5,239.6z"/>
	<path class="st0" d="M1342.4,240.3c0,66.6,0,133.2,0,199.7c0,20.3-8.2,31.5-27.8,37c-16.8,4.7-32.7,2.4-46.5-9
		c-7.1-5.9-10.8-13.6-10.8-23.1c0.1-135.7,0.2-271.3-0.1-407c0-16.7,7.4-27.4,22-33.4c18-7.4,35.5-5.9,51.3,5.9
		c7.8,5.9,11.9,13.9,11.9,24.1C1342.3,103.1,1342.3,171.7,1342.4,240.3C1342.3,240.3,1342.3,240.3,1342.4,240.3z"/>
	<path class="st0" d="M1115.3,239.7c0-67.9,0.1-135.8-0.1-203.7c-0.1-13.6,6-23.1,17.2-29.2c17.8-9.6,35.8-9.1,53.1,1.5
		c10,6.2,15,15.5,15,27.6c-0.1,134.5,0,269,0,403.5c0,20.9-8.9,32.7-29.3,38c-14.5,3.8-28.4,2-41.1-6.3
		c-9.7-6.3-14.8-15.1-14.7-27.1C1115.4,375.9,1115.3,307.8,1115.3,239.7z"/>
	<path class="st0" d="M670.2,240.2c0-66.8,0.5-133.5-0.3-200.3c-0.3-22,12.5-33.5,29.1-37.8c14.6-3.8,28.7-2.2,41.6,6.2
		c9.9,6.4,14.9,15.7,14.9,27.7c-0.1,58.8,0,117.6,0,176.3c0,77.8,0.1,155.5,0,233.3c0,13.6-7.9,22.9-19.6,28.2
		c-19.2,8.8-38,7.5-54.9-5.7c-7.8-6.1-10.9-14.9-10.8-25C670.3,375.4,670.2,307.8,670.2,240.2C670.2,240.2,670.2,240.2,670.2,240.2z
		"/>
</g>
</svg>

